<svg width="280" height="280" viewBox="0 0 280 280" fill="none" xmlns="http://www.w3.org/2000/svg">
<path d="M131.907 58.1324C131.297 59.5776 130.69 61.0307 130.113 62.4279C128.541 66.2391 126.927 70.1328 125.745 72.9872C124.981 74.8297 124.397 76.2391 124.119 76.9138C123.399 78.5608 119.708 87.1424 116.114 95.9255C115.165 98.1828 114.178 100.537 113.205 102.854C110.382 109.583 107.685 116.01 106.425 118.901L106.421 118.911L106.416 118.921C101.022 131.808 98.9071 136.942 97.5939 140.478L97.5925 140.482C97.2631 141.376 96.8348 142.352 96.4295 143.175C95.998 144.05 95.668 144.595 95.5477 144.74L95.5231 144.769L95.5 144.8C95.3033 145.062 95.098 145.386 94.9748 145.753C94.8487 146.13 94.7675 146.689 95.0401 147.263C95.311 147.834 95.7916 148.126 96.1593 148.27C96.5218 148.411 96.9069 148.465 97.2494 148.485C98.5547 148.562 100.709 148.207 103.621 147.565C105.902 147.069 110.274 146.175 113.271 145.576C115.47 145.208 120.169 144.32 125.01 143.405C126.855 143.056 128.721 142.704 130.476 142.375C130.476 142.374 130.476 142.374 130.476 142.374L141.365 140.344L143.005 142.507L143.02 142.527L143.036 142.546C144.344 144.157 147.359 147.774 149.879 150.597M131.907 58.1324L151 149.6M131.907 58.1324C131.499 58.8044 131.084 59.4886 130.665 60.1793C127.832 64.8523 124.82 69.8196 122.681 73.2805C121.182 75.7789 118.966 79.4036 116.548 83.3582C116.298 83.7672 116.046 84.1797 115.792 84.5949C113.079 89.0331 110.183 93.778 107.786 97.7718L107.783 97.7777C98.0796 113.783 87.8744 130.291 82.3679 139.002L82.3679 139.002L82.3604 139.013C80.3716 142.096 77.1809 147.281 75.2789 150.384C73.3628 153.51 68.4512 161.027 64.4529 167.025C63.7575 168.095 63.0824 169.131 62.4421 170.114C61.2848 171.89 60.2416 173.491 59.3985 174.8C59.1202 175.232 58.8651 175.63 58.6361 175.99M131.907 58.1324L58.6361 175.99M149.879 150.597C149.88 150.597 149.88 150.598 149.881 150.599L151 149.6M149.879 150.597C149.879 150.596 149.878 150.596 149.878 150.596L151 149.6M149.879 150.597C153.029 154.147 155.264 156.705 156.708 158.445C157.117 158.938 157.455 159.357 157.73 159.709M151 149.6C157.3 156.7 160 159.9 160 160.5C160 160.7 158.3 161.2 156.3 161.5M157.73 159.709C158.015 159.645 158.274 159.58 158.499 159.517C158.81 159.431 159.017 159.36 159.125 159.315C159.187 159.288 159.16 159.294 159.094 159.338C159.064 159.358 158.963 159.426 158.854 159.551C158.764 159.653 158.5 159.983 158.5 160.5C158.5 160.715 158.554 160.857 158.56 160.873C158.565 160.888 158.569 160.897 158.569 160.897C158.57 160.898 158.565 160.888 158.553 160.866C158.508 160.783 158.417 160.637 158.256 160.41C158.118 160.215 157.943 159.982 157.73 159.709ZM157.73 159.709C157.242 159.819 156.679 159.926 156.083 160.016M156.083 160.016C156.084 160.016 156.086 160.015 156.088 160.015L156.3 161.5M156.083 160.016C153.964 160.319 149.759 161.02 146.772 161.517L146.753 161.521C143.762 162.019 138.281 162.916 134.582 163.516M156.083 160.016C156.081 160.016 156.079 160.016 156.077 160.017L156.3 161.5M156.3 161.5L134.582 163.516M134.582 163.516C134.589 163.515 134.597 163.514 134.604 163.513L134.8 165L134.56 163.519C134.567 163.518 134.575 163.517 134.582 163.516ZM134.582 163.516C131.323 163.945 126.482 164.735 122.846 165.328C122.209 165.433 121.608 165.531 121.06 165.619L121.051 165.621C118.062 166.125 116.099 166.46 114.55 166.725C111.789 167.197 110.345 167.443 106.763 168.019L134.582 163.516ZM58.6361 175.99C60.3809 175.755 63.2081 175.3 67.7466 174.522L67.7466 174.522L67.7534 174.521L67.7535 174.52C70.7538 174.02 79.1521 172.621 86.25 171.421L86.2534 171.421C88.1527 171.104 90.0099 170.793 91.7292 170.506C96.4913 169.709 100.196 169.089 100.814 169.012C101.212 168.962 102.088 168.811 103.198 168.619C104.247 168.438 105.504 168.22 106.763 168.019L58.6361 175.99Z" fill="#939191" stroke="white" stroke-width="3"/>
<path d="M214.226 164.112C208.479 154.17 201.052 141.207 195.395 131.241L195.389 131.23C190.497 122.442 184.01 111.366 181.028 106.595L181.022 106.585L181.016 106.576C179.561 104.168 178.231 101.908 177.262 100.222C176.778 99.3807 176.381 98.6755 176.103 98.1638C175.965 97.9099 175.849 97.6918 175.766 97.5238C175.725 97.4422 175.683 97.3542 175.648 97.2716C175.631 97.2318 175.606 97.1719 175.583 97.1027C175.583 97.1021 175.583 97.1011 175.582 97.0998C175.581 97.0969 175.58 97.0923 175.578 97.086C175.549 97.0284 175.506 96.9435 175.445 96.828C175.303 96.5573 175.089 96.1614 174.808 95.6497C174.248 94.6286 173.436 93.1716 172.43 91.3859C170.421 87.8164 167.649 82.9465 164.601 77.6507C160.098 69.8792 155.433 61.7315 152.491 56.5936C151.382 54.6575 150.518 53.1488 150 52.2485C149.057 50.6103 148.139 49.0721 147.434 47.9214C147.415 47.8903 147.396 47.8595 147.377 47.8289C147.189 48.2247 146.99 48.6749 146.788 49.168L146.784 49.1796L146.779 49.191C146.535 49.7603 146.243 50.448 145.928 51.192C145.096 53.1539 144.099 55.5075 143.367 57.1169C141.171 62.009 125.481 98.4856 116.782 119.084L116.78 119.089C115.027 123.196 113.299 127.152 111.946 130.197C110.866 132.627 109.997 134.539 109.551 135.456C110.064 135.434 110.744 135.379 111.638 135.284C113.144 135.123 115.149 134.864 117.804 134.513L117.811 134.512L117.818 134.511C119.855 134.263 122.255 133.963 124.458 133.687C126.663 133.412 128.671 133.161 129.918 133.011C132.015 132.755 132.902 132.525 133.423 132.195C133.84 131.931 134.171 131.508 134.703 130.153C135.432 128.282 139.165 120.315 142.945 112.357C146.76 104.325 150.226 96.7935 150.7 95.5616L150.703 95.5535C150.712 95.5312 150.721 95.5086 150.73 95.4857C150.919 95 151.167 94.3656 151.51 93.9218C151.719 93.6516 152.064 93.3112 152.593 93.1551C153.138 92.994 153.636 93.0994 154.006 93.2546C154.635 93.519 155.236 94.0809 155.786 94.6417C156.39 95.2571 157.155 96.1131 158.123 97.2051L158.136 97.22L158.149 97.2353C158.618 97.7938 159.178 98.4591 159.796 99.1926C161.935 101.73 164.76 105.083 166.861 107.65L166.864 107.654C168.162 109.251 169.409 110.773 170.368 111.931C170.848 112.51 171.253 112.997 171.556 113.355C171.708 113.535 171.832 113.679 171.924 113.786C172.004 113.878 172.045 113.922 172.057 113.935C172.061 113.94 172.062 113.941 172.061 113.939C172.192 114.071 172.602 114.55 173.138 115.181C173.709 115.854 174.498 116.791 175.449 117.923C177.35 120.187 179.902 123.239 182.652 126.54C185.402 129.839 187.95 132.887 189.849 135.148C190.798 136.278 191.584 137.211 192.15 137.878C192.433 138.212 192.66 138.478 192.824 138.668C192.945 138.807 193.013 138.885 193.043 138.919C193.052 138.929 193.057 138.935 193.06 138.938C193.199 139.073 193.385 139.282 193.556 139.475C193.791 139.741 194.105 140.102 194.485 140.544C195.245 141.429 196.283 142.65 197.51 144.102C199.964 147.007 203.182 150.844 206.464 154.776C209.128 157.968 211.841 161.231 214.226 164.112ZM214.226 164.112C216.685 167.084 218.794 169.65 220.139 171.315C214.388 161.457 204.051 143.451 196.7 130.5M157 98.2001C153.1 93.8001 153 93.8001 152.1 96.1001C151.6 97.4001 148.1 105 144.3 113C140.5 121 136.8 128.9 136.1 130.7L157 98.2001ZM157 98.2001C157.472 98.762 158.035 99.43 158.655 100.165C160.792 102.702 163.607 106.042 165.7 108.6L157 98.2001Z" fill="#0F0BC8" stroke="white" stroke-width="3"/>
<path d="M211.87 183.471L211.862 183.461L211.855 183.451C211.49 182.95 211.048 182.348 210.57 181.697C209.309 179.979 207.795 177.918 206.786 176.467C203.702 172.076 180.372 139.948 167.116 121.943L167.113 121.939C164.479 118.333 161.961 114.825 160.036 112.106C158.5 109.936 157.3 108.211 156.74 107.36C156.497 107.812 156.197 108.425 155.822 109.242C155.19 110.618 154.388 112.474 153.332 114.935L153.329 114.941L153.326 114.948C152.499 116.826 151.53 119.042 150.641 121.076C149.75 123.113 148.939 124.967 148.43 126.116C147.579 128.048 147.324 128.928 147.341 129.544C147.354 130.038 147.549 130.538 148.441 131.688C149.676 133.269 154.616 140.551 159.524 147.869C164.477 155.253 169.179 162.082 169.995 163.119L170.001 163.126C170.016 163.145 170.03 163.164 170.046 163.183C170.366 163.594 170.785 164.132 170.991 164.653C171.116 164.971 171.232 165.442 171.096 165.976C170.956 166.527 170.611 166.901 170.288 167.139C169.74 167.545 168.95 167.774 168.186 167.961C167.349 168.165 166.222 168.385 164.789 168.658L164.769 168.662L164.75 168.665C164.03 168.783 163.172 168.925 162.226 169.081C158.952 169.622 154.626 170.337 151.345 170.83L151.34 170.831C149.303 171.13 147.358 171.424 145.873 171.656C145.13 171.772 144.504 171.872 144.041 171.949C143.809 171.988 143.622 172.02 143.483 172.046C143.363 172.067 143.305 172.079 143.287 172.083C143.281 172.084 143.28 172.085 143.281 172.084C143.101 172.13 142.48 172.237 141.664 172.375C140.793 172.522 139.585 172.721 138.126 172.96C135.208 173.437 131.281 174.07 127.037 174.747C122.797 175.423 118.874 176.056 115.96 176.532C114.503 176.77 113.301 176.969 112.438 177.114C112.006 177.187 111.662 177.246 111.414 177.29C111.233 177.322 111.131 177.341 111.086 177.35C111.073 177.352 111.065 177.354 111.061 177.355C110.875 177.405 110.599 177.458 110.346 177.506C109.998 177.572 109.527 177.657 108.953 177.758C107.803 177.959 106.223 178.227 104.348 178.539C100.597 179.164 95.6548 179.968 90.5969 180.779C86.4925 181.438 82.3012 182.102 78.6055 182.678C90.0882 182.822 105.026 183.064 116.484 183.297L116.496 183.297C126.549 183.583 139.385 183.67 145.01 183.546L145.021 183.545L145.033 183.545C147.846 183.526 150.468 183.537 152.412 183.566C153.383 183.581 154.192 183.6 154.774 183.622C155.063 183.633 155.309 183.645 155.496 183.659C155.587 183.666 155.685 183.675 155.774 183.687C155.816 183.693 155.881 183.702 155.952 183.718C155.952 183.718 155.953 183.718 155.955 183.719C155.958 183.719 155.962 183.72 155.969 183.722C156.033 183.727 156.128 183.733 156.258 183.74C156.564 183.756 157.013 183.774 157.597 183.795C158.761 183.835 160.428 183.881 162.477 183.93C166.572 184.028 172.175 184.134 178.285 184.222C187.266 184.324 196.653 184.479 202.573 184.577C204.803 184.614 206.542 184.642 207.58 184.657C209.47 184.684 211.262 184.681 212.611 184.663C212.648 184.662 212.684 184.662 212.72 184.661C212.476 184.298 212.19 183.897 211.87 183.471ZM156.106 106.387C156.106 106.387 156.11 106.392 156.118 106.4C156.11 106.39 156.106 106.387 156.106 106.387Z" fill="#CC40BE" stroke="white" stroke-width="3"/>
<path d="M211.1 199.1C208.9 200 206.3 202.1 205.3 203.6C203 207.2 203 213.8 205.2 217.3C208.8 222.6 221.1 223.4 221.8 218.3C222.1 216.3 221.9 216.2 219.1 217.3C215.2 218.8 211 217.3 209.1 213.8C207 210.1 208.6 204.1 212.2 202.1C214.6 200.7 215.2 200.7 218.5 202.3L222.1 204L221.8 201.3C221.4 197.6 216.7 196.6 211.1 199.1Z" fill="black"/>
<path d="M155.1 200.2C154 203.1 154.3 203.4 157 202C160.6 200.1 161.3 201.9 160.8 212.4L160.4 222H163H165.5V211.8V201.5L167.9 201.8C170.1 202 171.9 200.7 172 198.7C172 198.3 168.4 198 164 198C156.6 198 155.9 198.2 155.1 200.2Z" fill="black"/>
<path d="M180.5 210V222H186.6C191.9 222 192.8 221.7 193.3 220C193.8 218.2 193.4 218.1 189.4 218.7L185 219.3V215.5C185 212 185.2 211.8 187.5 212.3C189.3 212.6 190.4 212.2 191 210.9C192.4 208.3 192.3 208.3 188.8 208.4C185.7 208.5 185.5 208.3 185.5 205C185.5 201.8 185.7 201.5 188.5 201.5C190.5 201.5 191.6 200.9 191.8 199.7C192.1 198.2 191.3 198 186.3 198H180.5V210Z" fill="black"/>
<path d="M231.3 210L231.2 222H234C236.6 222 236.7 221.9 236.2 217L235.7 212H240.4C244.9 212 245 212.1 245 215.1C245 216.8 244.5 219 244 220.1C243 221.8 243.3 222 246.2 222H249.5V210V198H246.8C244.1 198 244 198.2 244.3 202.7L244.5 207.5L240.1 207.8L235.7 208.1L236.2 203.1C236.7 198.1 236.7 198 234 198H231.3V210Z" fill="black"/>
<path d="M36.7734 220.189V207.836C36.7734 207.764 36.7246 207.702 36.627 207.65C36.5358 207.598 36.4154 207.556 36.2656 207.523C36.1159 207.484 35.9499 207.455 35.7676 207.436C35.5918 207.41 35.4193 207.39 35.25 207.377C35.0807 207.357 34.9245 207.341 34.7812 207.328C34.638 207.315 34.5339 207.299 34.4688 207.279C34.3841 207.273 34.3418 207.224 34.3418 207.133C34.3418 207.087 34.3711 207.058 34.4297 207.045C34.4948 207.025 34.5501 207.016 34.5957 207.016H37.4961C37.6784 207.016 37.9095 207.006 38.1895 206.986C38.4694 206.967 38.7689 206.947 39.0879 206.928C39.4069 206.908 39.7324 206.889 40.0645 206.869C40.3965 206.85 40.7057 206.84 40.9922 206.84H43.5312C43.5378 206.833 43.5768 206.83 43.6484 206.83H43.8535C43.9512 206.83 44.013 206.879 44.0391 206.977C44.0716 207.068 44.0879 207.152 44.0879 207.23C44.1139 207.569 44.1432 207.917 44.1758 208.275C44.2083 208.627 44.2246 208.972 44.2246 209.311C44.2246 209.382 44.2018 209.444 44.1562 209.496C44.1172 209.542 44.0586 209.564 43.9805 209.564C43.9284 209.564 43.8763 209.555 43.8242 209.535C43.7721 209.509 43.7233 209.444 43.6777 209.34C43.6257 209.229 43.5671 209.105 43.502 208.969C43.4368 208.832 43.3652 208.699 43.2871 208.568C43.209 208.438 43.1276 208.321 43.043 208.217C42.9583 208.106 42.877 208.025 42.7988 207.973C42.584 207.823 42.3626 207.706 42.1348 207.621C41.9069 207.536 41.6693 207.475 41.4219 207.436C41.181 207.396 40.9336 207.374 40.6797 207.367C40.4258 207.354 40.1654 207.348 39.8984 207.348H39.2246C39.0618 207.348 38.9251 207.374 38.8145 207.426C38.7103 207.471 38.6582 207.592 38.6582 207.787V213.275C38.6582 213.347 38.6875 213.399 38.7461 213.432C38.8047 213.464 38.8503 213.487 38.8828 213.5C39.0195 213.48 39.166 213.467 39.3223 213.461C39.4785 213.454 39.6315 213.451 39.7812 213.451C40.0156 213.451 40.25 213.448 40.4844 213.441C40.7253 213.435 40.9499 213.419 41.1582 213.393C41.3665 213.36 41.5521 213.314 41.7148 213.256C41.8841 213.197 42.0111 213.116 42.0957 213.012C42.1217 212.973 42.1478 212.911 42.1738 212.826C42.2064 212.742 42.2357 212.65 42.2617 212.553C42.2878 212.455 42.3105 212.364 42.3301 212.279C42.3561 212.195 42.3789 212.133 42.3984 212.094C42.431 211.996 42.4505 211.892 42.457 211.781C42.4635 211.664 42.4733 211.557 42.4863 211.459C42.4993 211.361 42.5286 211.28 42.5742 211.215C42.6198 211.15 42.7012 211.117 42.8184 211.117C42.9616 211.117 43.0462 211.173 43.0723 211.283C43.1048 211.394 43.1211 211.508 43.1211 211.625V215.375C43.1211 215.408 43.1211 215.443 43.1211 215.482C43.1211 215.515 43.1276 215.551 43.1406 215.59C43.1536 215.694 43.1602 215.788 43.1602 215.873C43.1667 215.951 43.1699 216.003 43.1699 216.029C43.1699 216.101 43.1504 216.166 43.1113 216.225C43.0788 216.283 43.0267 216.322 42.9551 216.342C42.8704 216.342 42.8021 216.277 42.75 216.146C42.6849 215.977 42.6426 215.798 42.623 215.609C42.6035 215.414 42.571 215.229 42.5254 215.053C42.4798 214.87 42.4082 214.704 42.3105 214.555C42.2194 214.398 42.0664 214.271 41.8516 214.174C41.7734 214.135 41.6758 214.102 41.5586 214.076C41.4414 214.05 41.3177 214.031 41.1875 214.018C41.0638 213.998 40.9401 213.985 40.8164 213.979C40.6927 213.965 40.5885 213.959 40.5039 213.959C40.4714 213.959 40.3737 213.956 40.2109 213.949C40.0547 213.943 39.8887 213.939 39.7129 213.939C39.5241 213.939 39.3516 213.946 39.1953 213.959C39.0391 213.965 38.9447 213.982 38.9121 214.008C38.8535 214.06 38.8145 214.105 38.7949 214.145C38.7754 214.184 38.7656 214.255 38.7656 214.359V220.16C38.7721 220.251 38.8307 220.32 38.9414 220.365C39.0586 220.404 39.1986 220.434 39.3613 220.453C39.5306 220.473 39.7096 220.486 39.8984 220.492C40.0872 220.499 40.263 220.512 40.4258 220.531C40.5885 220.544 40.722 220.574 40.8262 220.619C40.9368 220.665 40.9922 220.736 40.9922 220.834C40.9922 220.886 40.9727 220.925 40.9336 220.951C40.901 220.977 40.8587 220.993 40.8066 221C40.7546 221.013 40.6992 221.02 40.6406 221.02C40.5885 221.026 40.543 221.029 40.5039 221.029C40.1589 221.029 39.8496 221.026 39.5762 221.02C39.3027 221.013 39.0423 221.007 38.7949 221C38.5475 220.987 38.3066 220.977 38.0723 220.971C37.8379 220.958 37.5905 220.951 37.3301 220.951C37.1803 220.951 37.0306 220.958 36.8809 220.971C36.7311 220.977 36.5749 220.987 36.4121 221C36.1061 221.02 35.7969 221.029 35.4844 221.029H34.9961C34.9635 221.029 34.9277 221.023 34.8887 221.01C34.8496 221.003 34.8301 220.971 34.8301 220.912C34.8301 220.847 34.8496 220.801 34.8887 220.775C34.9277 220.749 35.0026 220.723 35.1133 220.697C35.2956 220.658 35.4844 220.632 35.6797 220.619C35.875 220.6 36.054 220.58 36.2168 220.561C36.3796 220.535 36.513 220.495 36.6172 220.443C36.7214 220.391 36.7734 220.307 36.7734 220.189ZM51.0352 208.09C51.0352 207.895 50.9635 207.738 50.8203 207.621C50.6771 207.504 50.5013 207.413 50.293 207.348C50.0846 207.276 49.8633 207.227 49.6289 207.201C49.3945 207.175 49.1862 207.156 49.0039 207.143C48.9583 207.143 48.916 207.139 48.877 207.133C48.8379 207.12 48.8184 207.084 48.8184 207.025C48.8184 206.986 48.8346 206.954 48.8672 206.928C48.8997 206.902 48.9388 206.882 48.9844 206.869C49.0299 206.85 49.0755 206.84 49.1211 206.84C49.1667 206.833 49.2057 206.83 49.2383 206.83C49.2839 206.83 49.3815 206.833 49.5312 206.84C49.681 206.84 49.8665 206.843 50.0879 206.85C50.3092 206.85 50.5534 206.853 50.8203 206.859C51.0938 206.859 51.377 206.859 51.6699 206.859C52.1712 206.859 52.6009 206.853 52.959 206.84C53.3236 206.82 53.6523 206.801 53.9453 206.781C54.2448 206.755 54.528 206.736 54.7949 206.723C55.0684 206.703 55.3613 206.693 55.6738 206.693C55.7975 206.693 55.9049 206.693 55.9961 206.693C56.0938 206.693 56.1914 206.693 56.2891 206.693C56.3867 206.693 56.4941 206.697 56.6113 206.703C56.735 206.703 56.8815 206.706 57.0508 206.713C57.2266 206.719 57.4382 206.726 57.6855 206.732C57.9395 206.739 58.2454 206.749 58.6035 206.762C58.6751 206.768 58.737 206.794 58.7891 206.84C58.8411 206.885 58.8737 206.944 58.8867 207.016C58.8997 207.465 58.9095 207.895 58.916 208.305C58.929 208.708 58.9355 209.138 58.9355 209.594C58.9355 209.698 58.9193 209.75 58.8867 209.75C58.8737 209.75 58.8542 209.747 58.8281 209.74C58.8021 209.734 58.7826 209.714 58.7695 209.682C58.7174 209.577 58.6621 209.464 58.6035 209.34C58.5449 209.216 58.4831 209.092 58.418 208.969C58.3594 208.839 58.2975 208.715 58.2324 208.598C58.1738 208.48 58.1152 208.38 58.0566 208.295C57.972 208.171 57.8613 208.044 57.7246 207.914C57.5879 207.777 57.4349 207.654 57.2656 207.543C57.0964 207.432 56.9141 207.341 56.7188 207.27C56.5299 207.198 56.3411 207.156 56.1523 207.143C56.0352 207.143 55.931 207.143 55.8398 207.143C55.7552 207.136 55.6706 207.133 55.5859 207.133C55.5013 207.133 55.4134 207.133 55.3223 207.133C55.2311 207.133 55.1237 207.133 55 207.133C54.7461 207.133 54.4824 207.139 54.209 207.152C53.9421 207.165 53.6816 207.198 53.4277 207.25C53.3691 207.263 53.3105 207.283 53.252 207.309C53.1934 207.328 53.1641 207.38 53.1641 207.465V213.568C53.1771 213.653 53.2227 213.708 53.3008 213.734C53.6719 213.702 54.0658 213.676 54.4824 213.656C54.9056 213.63 55.3027 213.617 55.6738 213.617C55.8561 213.604 56.0189 213.546 56.1621 213.441C56.3118 213.331 56.4421 213.201 56.5527 213.051C56.6634 212.895 56.7611 212.725 56.8457 212.543C56.9303 212.354 57.0052 212.172 57.0703 211.996C57.1354 211.82 57.1908 211.664 57.2363 211.527C57.2884 211.384 57.3372 211.277 57.3828 211.205C57.4023 211.173 57.4219 211.153 57.4414 211.146C57.4609 211.14 57.5163 211.137 57.6074 211.137C57.6465 211.137 57.6855 211.146 57.7246 211.166C57.7702 211.179 57.793 211.202 57.793 211.234C57.793 211.469 57.7832 211.677 57.7637 211.859C57.7507 212.042 57.7344 212.204 57.7148 212.348C57.6953 212.491 57.6758 212.624 57.6562 212.748C57.6432 212.865 57.6367 212.979 57.6367 213.09V216.742C57.6237 216.762 57.6074 216.778 57.5879 216.791C57.5553 216.824 57.5228 216.84 57.4902 216.84C57.4382 216.84 57.3861 216.794 57.334 216.703C57.2884 216.605 57.2396 216.485 57.1875 216.342C57.1419 216.199 57.0931 216.039 57.041 215.863C56.9954 215.688 56.9434 215.515 56.8848 215.346C56.8327 215.176 56.7741 215.023 56.709 214.887C56.6504 214.75 56.582 214.649 56.5039 214.584C56.4323 214.525 56.3281 214.473 56.1914 214.428C56.0547 214.382 55.8984 214.346 55.7227 214.32C55.5534 214.294 55.3711 214.275 55.1758 214.262C54.9805 214.242 54.7917 214.229 54.6094 214.223C54.4336 214.216 54.2676 214.213 54.1113 214.213C53.9551 214.213 53.8314 214.213 53.7402 214.213C53.597 214.213 53.4831 214.223 53.3984 214.242C53.3203 214.255 53.2585 214.288 53.2129 214.34C53.1738 214.392 53.1478 214.467 53.1348 214.564C53.1217 214.662 53.1152 214.796 53.1152 214.965V218.9C53.1152 219.089 53.125 219.255 53.1445 219.398C53.1641 219.542 53.1966 219.669 53.2422 219.779C53.2943 219.883 53.3594 219.978 53.4375 220.062C53.5221 220.141 53.623 220.215 53.7402 220.287C53.8314 220.339 53.9323 220.391 54.043 220.443C54.1602 220.489 54.2676 220.512 54.3652 220.512H55.8984C56.0482 220.512 56.1816 220.512 56.2988 220.512C56.4225 220.505 56.5462 220.499 56.6699 220.492C56.7936 220.479 56.9238 220.463 57.0605 220.443C57.1973 220.417 57.3568 220.385 57.5391 220.346C57.7344 220.3 57.9167 220.222 58.0859 220.111C58.2552 220.001 58.4147 219.867 58.5645 219.711C58.7207 219.555 58.8672 219.379 59.0039 219.184C59.1406 218.988 59.2708 218.783 59.3945 218.568C59.4141 218.536 59.4499 218.467 59.502 218.363C59.554 218.253 59.6094 218.168 59.668 218.109C59.6745 218.096 59.6908 218.09 59.7168 218.09C59.7428 218.09 59.7656 218.113 59.7852 218.158C59.8307 218.243 59.8535 218.412 59.8535 218.666C59.8535 218.744 59.8307 218.865 59.7852 219.027C59.7396 219.184 59.7005 219.333 59.668 219.477C59.6354 219.594 59.6094 219.74 59.5898 219.916C59.5703 220.092 59.5443 220.264 59.5117 220.434C59.4792 220.596 59.4303 220.736 59.3652 220.854C59.3066 220.971 59.2253 221.029 59.1211 221.029C59.082 221.029 59.0495 221.026 59.0234 221.02C58.9974 221.02 58.9746 221.02 58.9551 221.02C58.9355 221.007 58.8802 221 58.7891 221H51.5918C51.4421 221 51.2598 221.003 51.0449 221.01C50.8366 221.023 50.625 221.033 50.4102 221.039C50.1953 221.052 49.9902 221.062 49.7949 221.068C49.6061 221.081 49.4564 221.088 49.3457 221.088H49.0723C49.0007 221.088 48.929 221.072 48.8574 221.039C48.7858 221.013 48.75 220.967 48.75 220.902C48.75 220.844 48.7565 220.785 48.7695 220.727C48.7891 220.668 48.8281 220.622 48.8867 220.59C48.8997 220.583 48.929 220.577 48.9746 220.57C49.0267 220.564 49.082 220.557 49.1406 220.551C49.1992 220.544 49.2546 220.541 49.3066 220.541C49.3587 220.535 49.3978 220.531 49.4238 220.531C49.5801 220.518 49.7103 220.508 49.8145 220.502C49.9186 220.489 50.0423 220.456 50.1855 220.404C50.4655 220.32 50.6771 220.209 50.8203 220.072C50.9635 219.929 51.0352 219.704 51.0352 219.398V208.09ZM65.0625 210.541C65.0625 210.215 65.1146 209.887 65.2188 209.555C65.3294 209.223 65.4759 208.91 65.6582 208.617C65.8405 208.318 66.0521 208.048 66.293 207.807C66.5404 207.559 66.8008 207.361 67.0742 207.211C67.3346 207.061 67.5983 206.97 67.8652 206.938C68.1387 206.905 68.4316 206.889 68.7441 206.889C69.0957 206.889 69.4408 206.931 69.7793 207.016C70.1178 207.094 70.4466 207.217 70.7656 207.387C70.7917 207.406 70.8405 207.439 70.9121 207.484C70.9837 207.53 71.0618 207.585 71.1465 207.65C71.2376 207.715 71.3288 207.784 71.4199 207.855C71.5111 207.921 71.5924 207.982 71.6641 208.041C71.6901 208.067 71.7129 208.08 71.7324 208.08C71.7389 208.08 71.7552 208.067 71.7812 208.041C71.8008 208.015 71.8236 207.976 71.8496 207.924C71.8822 207.865 71.9147 207.807 71.9473 207.748C71.9798 207.683 72.0091 207.624 72.0352 207.572C72.0677 207.514 72.0905 207.475 72.1035 207.455C72.1165 207.423 72.1328 207.393 72.1523 207.367C72.1784 207.341 72.1947 207.328 72.2012 207.328C72.2012 207.322 72.2142 207.318 72.2402 207.318C72.2793 207.318 72.3086 207.335 72.3281 207.367C72.3477 207.393 72.3607 207.426 72.3672 207.465C72.3802 207.504 72.3867 207.546 72.3867 207.592C72.3867 207.631 72.3867 207.663 72.3867 207.689V207.758C72.3867 207.771 72.3835 207.797 72.377 207.836C72.377 207.875 72.3737 207.921 72.3672 207.973C72.3607 208.018 72.3542 208.061 72.3477 208.1C72.3477 208.139 72.3444 208.165 72.3379 208.178V210.59C72.3379 210.642 72.3151 210.678 72.2695 210.697C72.224 210.717 72.1849 210.727 72.1523 210.727C72.0807 210.727 72.0384 210.714 72.0254 210.688C72.0124 210.655 71.9928 210.6 71.9668 210.521C71.8952 210.352 71.8464 210.18 71.8203 210.004C71.8008 209.822 71.7552 209.636 71.6836 209.447C71.612 209.232 71.4915 209.001 71.3223 208.754C71.153 208.5 70.9577 208.266 70.7363 208.051C70.515 207.836 70.2839 207.657 70.043 207.514C69.8021 207.37 69.571 207.299 69.3496 207.299C68.9395 207.299 68.6237 207.328 68.4023 207.387C68.0703 207.484 67.7904 207.644 67.5625 207.865C67.3411 208.08 67.1361 208.324 66.9473 208.598C66.8952 208.676 66.8464 208.777 66.8008 208.9C66.7552 209.018 66.7161 209.145 66.6836 209.281C66.6576 209.411 66.6348 209.538 66.6152 209.662C66.6022 209.786 66.5957 209.887 66.5957 209.965C66.5957 210.277 66.6608 210.561 66.791 210.814C66.9277 211.068 67.1035 211.296 67.3184 211.498C67.5332 211.693 67.7741 211.869 68.041 212.025C68.3145 212.175 68.5879 212.305 68.8613 212.416C69.0957 212.514 69.3366 212.608 69.584 212.699C69.8379 212.79 70.0853 212.885 70.3262 212.982C70.5736 213.08 70.8079 213.188 71.0293 213.305C71.2572 213.422 71.459 213.555 71.6348 213.705C71.8561 213.881 72.0742 214.099 72.2891 214.359C72.5039 214.613 72.696 214.893 72.8652 215.199C73.041 215.499 73.181 215.811 73.2852 216.137C73.3893 216.462 73.4414 216.781 73.4414 217.094C73.4414 217.699 73.334 218.246 73.1191 218.734C72.9108 219.223 72.6178 219.639 72.2402 219.984C71.8691 220.323 71.4297 220.587 70.9219 220.775C70.4141 220.958 69.8672 221.049 69.2812 221.049C68.9362 221.049 68.6009 221.033 68.2754 221C67.9564 220.961 67.6504 220.896 67.3574 220.805C67.0645 220.714 66.7878 220.587 66.5273 220.424C66.2669 220.261 66.0195 220.053 65.7852 219.799C65.7591 219.766 65.7233 219.747 65.6777 219.74C65.6387 219.734 65.6061 219.73 65.5801 219.73C65.4694 219.73 65.3913 219.76 65.3457 219.818C65.3001 219.877 65.2611 219.945 65.2285 220.023C65.2025 220.095 65.1699 220.16 65.1309 220.219C65.0918 220.277 65.0234 220.307 64.9258 220.307L65.1797 217.621C65.1927 217.536 65.2025 217.436 65.209 217.318C65.2155 217.201 65.2318 217.123 65.2578 217.084C65.2773 216.993 65.3132 216.947 65.3652 216.947C65.4434 216.947 65.4987 216.996 65.5312 217.094C65.5703 217.204 65.6029 217.315 65.6289 217.426C65.6549 217.53 65.6777 217.634 65.6973 217.738C65.7168 217.842 65.7363 217.94 65.7559 218.031C65.7819 218.122 65.8145 218.204 65.8535 218.275C66.0033 218.542 66.1465 218.78 66.2832 218.988C66.4264 219.197 66.5827 219.389 66.752 219.564C66.9277 219.74 67.1296 219.9 67.3574 220.043C67.5853 220.186 67.862 220.32 68.1875 220.443C68.3893 220.515 68.5814 220.557 68.7637 220.57C68.946 220.577 69.112 220.58 69.2617 220.58C69.444 220.58 69.6263 220.548 69.8086 220.482C69.9909 220.411 70.209 220.303 70.4629 220.16C70.834 219.939 71.1302 219.675 71.3516 219.369C71.5729 219.057 71.6836 218.666 71.6836 218.197C71.6836 217.865 71.6217 217.556 71.498 217.27C71.3809 216.983 71.2181 216.716 71.0098 216.469C70.7103 216.137 70.4238 215.88 70.1504 215.697C69.877 215.508 69.6068 215.359 69.3398 215.248C69.0794 215.137 68.819 215.043 68.5586 214.965C68.2982 214.887 68.0312 214.789 67.7578 214.672C67.4909 214.555 67.2174 214.398 66.9375 214.203C66.6576 214.008 66.3646 213.734 66.0586 213.383C65.3945 212.602 65.0625 211.654 65.0625 210.541ZM85.5938 208.578V219.906C85.5938 220.056 85.6751 220.17 85.8379 220.248C86.0072 220.326 86.1992 220.385 86.4141 220.424C86.6354 220.463 86.8535 220.492 87.0684 220.512C87.2832 220.525 87.4395 220.541 87.5371 220.561C87.5957 220.632 87.6283 220.684 87.6348 220.717C87.6478 220.743 87.6543 220.785 87.6543 220.844C87.6543 220.902 87.6348 220.951 87.5957 220.99C87.5632 221.029 87.5208 221.059 87.4688 221.078C87.4167 221.104 87.3581 221.124 87.293 221.137C87.2344 221.15 87.179 221.156 87.127 221.156C86.9967 221.156 86.7982 221.143 86.5312 221.117C86.2643 221.091 85.9811 221.062 85.6816 221.029C85.3887 221.003 85.1022 220.977 84.8223 220.951C84.5488 220.925 84.3372 220.912 84.1875 220.912C83.9336 220.912 83.6895 220.915 83.4551 220.922C83.2207 220.928 82.9766 220.954 82.7227 221C82.6706 221 82.5859 221.01 82.4688 221.029C82.3581 221.055 82.2344 221.081 82.0977 221.107C81.9609 221.133 81.8242 221.156 81.6875 221.176C81.5573 221.202 81.4499 221.215 81.3652 221.215C81.3001 221.215 81.2513 221.186 81.2188 221.127C81.1862 221.075 81.1699 221.033 81.1699 221C81.1699 220.915 81.2155 220.847 81.3066 220.795C81.4043 220.743 81.4857 220.71 81.5508 220.697C81.5898 220.678 81.6615 220.655 81.7656 220.629C81.8763 220.603 81.9967 220.577 82.127 220.551C82.2572 220.518 82.3809 220.489 82.498 220.463C82.6217 220.43 82.7194 220.401 82.791 220.375C82.8952 220.349 82.9863 220.323 83.0645 220.297C83.1426 220.264 83.2077 220.225 83.2598 220.18C83.3118 220.128 83.3509 220.062 83.377 219.984C83.403 219.9 83.416 219.792 83.416 219.662V208.969C83.416 208.917 83.4128 208.861 83.4062 208.803C83.3997 208.738 83.3867 208.679 83.3672 208.627C83.3477 208.575 83.3184 208.533 83.2793 208.5C83.2402 208.467 83.1849 208.451 83.1133 208.451H80.9258C80.6328 208.451 80.3822 208.477 80.1738 208.529C79.9655 208.575 79.7734 208.65 79.5977 208.754C79.3828 208.865 79.1647 209.014 78.9434 209.203C78.7285 209.392 78.5625 209.59 78.4453 209.799C78.4258 209.831 78.4062 209.877 78.3867 209.936C78.3737 209.994 78.3542 210.053 78.3281 210.111C78.3021 210.17 78.2728 210.222 78.2402 210.268C78.2077 210.313 78.1686 210.336 78.123 210.336C78.097 210.336 78.0677 210.316 78.0352 210.277C78.0026 210.238 77.9701 210.189 77.9375 210.131C77.9049 210.066 77.8757 209.997 77.8496 209.926C77.8301 209.848 77.8203 209.773 77.8203 209.701C77.8203 209.558 77.8496 209.408 77.9082 209.252C77.9733 209.096 78.0514 208.93 78.1426 208.754C78.2337 208.578 78.3314 208.389 78.4355 208.188C78.5397 207.979 78.6341 207.751 78.7188 207.504V207.328C78.7188 207.283 78.7285 207.234 78.748 207.182C78.7806 207.123 78.8262 207.09 78.8848 207.084C78.9499 207.071 79.0182 207.064 79.0898 207.064C79.1484 207.064 79.1973 207.084 79.2363 207.123C79.2754 207.156 79.3145 207.195 79.3535 207.24C79.3926 207.286 79.4349 207.335 79.4805 207.387C79.5326 207.432 79.5944 207.465 79.666 207.484C79.7441 207.504 79.8939 207.53 80.1152 207.562C80.3366 207.589 80.6393 207.615 81.0234 207.641C81.4141 207.667 81.8893 207.689 82.4492 207.709C83.0091 207.729 83.6699 207.738 84.4316 207.738C84.6139 207.738 84.8223 207.735 85.0566 207.729C85.291 207.715 85.5319 207.702 85.7793 207.689C86.0332 207.676 86.2839 207.667 86.5312 207.66C86.7786 207.647 87.0065 207.641 87.2148 207.641C87.3776 207.641 87.5241 207.647 87.6543 207.66C87.7845 207.673 87.9245 207.693 88.0742 207.719C88.1523 207.732 88.237 207.745 88.3281 207.758C88.4193 207.771 88.5104 207.784 88.6016 207.797C88.6927 207.803 88.7773 207.81 88.8555 207.816C88.9336 207.823 88.9954 207.826 89.041 207.826C89.1647 207.826 89.2266 207.758 89.2266 207.621C89.2266 207.549 89.2493 207.481 89.2949 207.416C89.3535 207.344 89.4316 207.26 89.5293 207.162C89.627 207.064 89.7116 207.016 89.7832 207.016C89.8353 207.016 89.8906 207.051 89.9492 207.123C90.0143 207.195 90.0762 207.283 90.1348 207.387C90.1999 207.484 90.2585 207.585 90.3105 207.689C90.3691 207.787 90.418 207.865 90.457 207.924C90.5026 208.028 90.5352 208.155 90.5547 208.305C90.5742 208.448 90.597 208.559 90.623 208.637C90.6491 208.695 90.7044 208.79 90.7891 208.92C90.8802 209.05 90.9714 209.19 91.0625 209.34C91.1536 209.483 91.235 209.623 91.3066 209.76C91.3848 209.896 91.4238 210.004 91.4238 210.082C91.4238 210.251 91.349 210.336 91.1992 210.336C91.1081 210.336 90.9974 210.284 90.8672 210.18C90.7435 210.076 90.61 209.955 90.4668 209.818C90.3301 209.682 90.1901 209.545 90.0469 209.408C89.9036 209.265 89.7702 209.154 89.6465 209.076C89.5618 209.024 89.4447 208.965 89.2949 208.9C89.1517 208.835 88.9987 208.77 88.8359 208.705C88.6732 208.64 88.5137 208.585 88.3574 208.539C88.2012 208.493 88.0677 208.464 87.957 208.451C87.7812 208.419 87.599 208.402 87.4102 208.402C87.2214 208.396 87.0391 208.393 86.8633 208.393H86.3066C86.2871 208.393 86.2383 208.396 86.1602 208.402C86.0885 208.409 86.0104 208.422 85.9258 208.441C85.8411 208.454 85.763 208.474 85.6914 208.5C85.6263 208.52 85.5938 208.546 85.5938 208.578ZM97.5215 219.584V208.578C97.5215 208.305 97.4727 208.1 97.375 207.963C97.2773 207.82 97.1536 207.719 97.0039 207.66C96.8607 207.595 96.7044 207.559 96.5352 207.553C96.3659 207.546 96.2064 207.54 96.0566 207.533C95.9134 207.52 95.793 207.494 95.6953 207.455C95.5977 207.416 95.5488 207.335 95.5488 207.211C95.5488 207.126 95.5879 207.074 95.666 207.055C95.7507 207.029 95.8288 207.016 95.9004 207.016H96.4473C96.61 207.016 96.7565 207.022 96.8867 207.035C97.0234 207.042 97.1504 207.051 97.2676 207.064C97.3913 207.077 97.515 207.09 97.6387 207.104C97.7689 207.11 97.9121 207.113 98.0684 207.113C98.3874 207.113 98.6673 207.107 98.9082 207.094C99.1491 207.074 99.3802 207.055 99.6016 207.035C99.8229 207.016 100.044 206.999 100.266 206.986C100.487 206.967 100.734 206.957 101.008 206.957H101.662C101.753 206.957 101.828 206.977 101.887 207.016C101.945 207.048 101.991 207.068 102.023 207.074C102.049 207.146 102.066 207.185 102.072 207.191C102.079 207.198 102.082 207.227 102.082 207.279C102.082 207.351 102.023 207.41 101.906 207.455C101.796 207.501 101.665 207.54 101.516 207.572C101.372 207.598 101.226 207.621 101.076 207.641C100.926 207.654 100.819 207.67 100.754 207.689C100.65 207.709 100.539 207.729 100.422 207.748C100.305 207.761 100.197 207.787 100.1 207.826C100.002 207.859 99.9206 207.911 99.8555 207.982C99.7904 208.048 99.7578 208.142 99.7578 208.266V219.867C99.7578 220.004 99.8066 220.111 99.9043 220.189C100.008 220.261 100.135 220.316 100.285 220.355C100.435 220.388 100.598 220.411 100.773 220.424C100.956 220.437 101.122 220.453 101.271 220.473C101.421 220.492 101.545 220.525 101.643 220.57C101.747 220.609 101.799 220.674 101.799 220.766C101.799 220.837 101.779 220.883 101.74 220.902C101.701 220.922 101.665 220.938 101.633 220.951C101.542 220.977 101.431 221 101.301 221.02C101.171 221.039 101.057 221.049 100.959 221.049C100.725 221.049 100.51 221.042 100.314 221.029C100.119 221.016 99.9303 221.003 99.748 220.99C99.5658 220.977 99.3835 220.964 99.2012 220.951C99.0189 220.938 98.8203 220.932 98.6055 220.932C98.5013 220.932 98.3548 220.935 98.166 220.941C97.9837 220.948 97.7852 220.958 97.5703 220.971C97.362 220.977 97.1536 220.984 96.9453 220.99C96.737 220.997 96.5579 221 96.4082 221H95.6367C95.6042 221 95.5586 220.984 95.5 220.951C95.4414 220.919 95.4121 220.867 95.4121 220.795C95.4121 220.665 95.4674 220.587 95.5781 220.561C95.7214 220.521 95.8483 220.492 95.959 220.473C96.0762 220.447 96.1966 220.424 96.3203 220.404C96.444 220.378 96.5807 220.352 96.7305 220.326C96.8802 220.3 97.0658 220.264 97.2871 220.219C97.3978 220.186 97.4629 220.115 97.4824 220.004C97.5085 219.893 97.5215 219.753 97.5215 219.584ZM105.953 207.465C105.953 207.38 105.992 207.328 106.07 207.309C106.142 207.289 106.204 207.279 106.256 207.279C106.38 207.279 106.542 207.283 106.744 207.289C106.952 207.296 107.171 207.302 107.398 207.309C107.626 207.309 107.854 207.312 108.082 207.318C108.31 207.325 108.512 207.328 108.688 207.328C108.935 207.328 109.173 207.325 109.4 207.318C109.635 207.312 109.892 207.299 110.172 207.279C110.465 207.266 110.742 207.243 111.002 207.211C111.269 207.178 111.533 207.162 111.793 207.162C111.819 207.162 111.858 207.165 111.91 207.172C111.962 207.172 112.014 207.178 112.066 207.191C112.118 207.198 112.161 207.214 112.193 207.24C112.232 207.266 112.252 207.302 112.252 207.348C112.252 207.439 112.2 207.507 112.096 207.553C111.992 207.592 111.861 207.624 111.705 207.65C111.549 207.676 111.38 207.706 111.197 207.738C111.015 207.764 110.846 207.81 110.689 207.875C110.533 207.934 110.403 208.021 110.299 208.139C110.195 208.256 110.143 208.415 110.143 208.617C110.143 208.767 110.146 208.93 110.152 209.105C110.165 209.275 110.201 209.428 110.26 209.564L113.16 216.928C113.251 217.143 113.32 217.25 113.365 217.25C113.437 217.25 113.521 217.156 113.619 216.967C113.639 216.921 113.684 216.798 113.756 216.596C113.834 216.387 113.928 216.13 114.039 215.824C114.156 215.512 114.283 215.163 114.42 214.779C114.563 214.389 114.706 213.988 114.85 213.578C114.999 213.168 115.146 212.758 115.289 212.348C115.432 211.938 115.562 211.557 115.68 211.205C115.803 210.847 115.911 210.535 116.002 210.268C116.093 209.994 116.155 209.792 116.188 209.662C116.22 209.499 116.236 209.343 116.236 209.193C116.236 209.076 116.227 208.969 116.207 208.871C116.194 208.767 116.165 208.676 116.119 208.598C116.035 208.448 115.908 208.318 115.738 208.207C115.576 208.09 115.423 207.995 115.279 207.924C115.169 207.872 115.038 207.829 114.889 207.797C114.745 207.758 114.609 207.715 114.479 207.67C114.348 207.624 114.238 207.572 114.146 207.514C114.055 207.455 114.01 207.377 114.01 207.279C114.01 207.195 114.039 207.146 114.098 207.133C114.156 207.12 114.212 207.113 114.264 207.113C114.485 207.113 114.732 207.123 115.006 207.143C115.279 207.156 115.566 207.172 115.865 207.191C116.165 207.211 116.471 207.23 116.783 207.25C117.096 207.263 117.398 207.27 117.691 207.27C117.854 207.27 118.001 207.263 118.131 207.25C118.268 207.23 118.395 207.211 118.512 207.191C118.629 207.172 118.743 207.156 118.854 207.143C118.964 207.123 119.085 207.113 119.215 207.113C119.254 207.113 119.296 207.117 119.342 207.123C119.387 207.123 119.433 207.13 119.479 207.143C119.524 207.156 119.56 207.175 119.586 207.201C119.618 207.227 119.635 207.266 119.635 207.318C119.635 207.423 119.596 207.484 119.518 207.504C119.394 207.536 119.27 207.572 119.146 207.611C119.023 207.65 118.906 207.689 118.795 207.729C118.691 207.768 118.6 207.807 118.521 207.846C118.443 207.878 118.391 207.904 118.365 207.924C118.294 207.956 118.193 208.025 118.062 208.129C117.939 208.233 117.822 208.363 117.711 208.52C117.646 208.611 117.577 208.721 117.506 208.852C117.441 208.982 117.356 209.161 117.252 209.389C117.148 209.61 117.021 209.896 116.871 210.248C116.728 210.6 116.546 211.042 116.324 211.576L112.74 220.375C112.695 220.479 112.652 220.567 112.613 220.639C112.574 220.71 112.525 220.746 112.467 220.746C112.395 220.746 112.337 220.707 112.291 220.629C112.245 220.551 112.197 220.443 112.145 220.307L108.209 209.848C108.144 209.678 108.072 209.499 107.994 209.311C107.916 209.115 107.825 208.93 107.721 208.754C107.623 208.578 107.512 208.422 107.389 208.285C107.265 208.142 107.128 208.038 106.979 207.973C106.926 207.966 106.842 207.95 106.725 207.924C106.614 207.898 106.5 207.862 106.383 207.816C106.272 207.771 106.171 207.719 106.08 207.66C105.995 207.602 105.953 207.536 105.953 207.465ZM128.848 215.395C128.991 215.395 129.062 215.333 129.062 215.209C129.062 215.15 129.059 215.105 129.053 215.072C129.014 214.949 128.958 214.77 128.887 214.535C128.815 214.301 128.734 214.031 128.643 213.725C128.551 213.419 128.451 213.093 128.34 212.748C128.236 212.396 128.128 212.045 128.018 211.693C127.913 211.342 127.809 211.003 127.705 210.678C127.601 210.346 127.51 210.046 127.432 209.779C127.419 209.766 127.399 209.743 127.373 209.711C127.354 209.678 127.321 209.662 127.275 209.662C127.217 209.662 127.171 209.717 127.139 209.828C127.08 209.991 126.999 210.222 126.895 210.521C126.797 210.821 126.686 211.153 126.562 211.518C126.439 211.882 126.309 212.26 126.172 212.65C126.042 213.041 125.918 213.406 125.801 213.744C125.684 214.076 125.583 214.366 125.498 214.613C125.413 214.854 125.358 215.014 125.332 215.092C125.319 215.111 125.312 215.137 125.312 215.17C125.312 215.32 125.413 215.395 125.615 215.395H128.848ZM120.801 220.746C120.801 220.635 120.859 220.57 120.977 220.551C121.087 220.531 121.257 220.502 121.484 220.463C121.908 220.372 122.259 220.186 122.539 219.906C122.819 219.626 123.053 219.307 123.242 218.949C123.431 218.585 123.587 218.207 123.711 217.816C123.841 217.426 123.965 217.074 124.082 216.762L126.582 209.916C126.641 209.747 126.693 209.63 126.738 209.564C126.79 209.493 126.833 209.434 126.865 209.389C126.898 209.337 126.924 209.278 126.943 209.213C126.963 209.148 126.973 209.034 126.973 208.871C126.973 208.799 126.963 208.734 126.943 208.676C126.924 208.617 126.901 208.559 126.875 208.5C126.855 208.435 126.836 208.367 126.816 208.295C126.797 208.217 126.787 208.122 126.787 208.012C126.956 207.992 127.116 207.966 127.266 207.934C127.422 207.895 127.565 207.829 127.695 207.738C127.767 207.686 127.829 207.618 127.881 207.533C127.933 207.442 127.988 207.354 128.047 207.27C128.105 207.185 128.174 207.113 128.252 207.055C128.33 206.99 128.434 206.957 128.564 206.957C128.577 206.957 128.59 206.96 128.604 206.967C128.617 206.973 128.63 206.993 128.643 207.025C128.656 207.058 128.695 207.185 128.76 207.406C128.831 207.628 128.923 207.924 129.033 208.295C129.15 208.66 129.281 209.083 129.424 209.564C129.574 210.046 129.73 210.561 129.893 211.107C130.062 211.648 130.234 212.211 130.41 212.797C130.592 213.383 130.771 213.962 130.947 214.535C131.123 215.102 131.289 215.652 131.445 216.186C131.608 216.713 131.758 217.195 131.895 217.631C132.031 218.067 132.148 218.448 132.246 218.773C132.344 219.092 132.415 219.327 132.461 219.477C132.533 219.691 132.646 219.88 132.803 220.043C132.959 220.206 133.132 220.316 133.32 220.375C133.509 220.44 133.678 220.476 133.828 220.482C133.984 220.489 134.115 220.495 134.219 220.502C134.329 220.508 134.414 220.531 134.473 220.57C134.531 220.609 134.561 220.691 134.561 220.814C134.561 220.854 134.548 220.886 134.521 220.912C134.495 220.932 134.463 220.948 134.424 220.961C134.385 220.974 134.342 220.984 134.297 220.99C134.258 220.99 134.225 220.993 134.199 221H133.32C133.268 221 133.213 221 133.154 221C133.096 220.993 133.005 220.99 132.881 220.99C132.764 220.984 132.601 220.98 132.393 220.98C132.184 220.974 131.908 220.971 131.562 220.971C131.198 220.971 130.84 220.977 130.488 220.99C130.143 220.997 129.792 221.007 129.434 221.02H128.936C128.883 221.02 128.825 221.016 128.76 221.01C128.695 221.01 128.633 221.003 128.574 220.99C128.516 220.977 128.467 220.954 128.428 220.922C128.389 220.889 128.369 220.844 128.369 220.785C128.369 220.733 128.395 220.691 128.447 220.658C128.499 220.626 128.561 220.6 128.633 220.58C128.704 220.561 128.779 220.548 128.857 220.541C128.936 220.528 129.001 220.518 129.053 220.512C129.274 220.479 129.489 220.443 129.697 220.404C129.906 220.359 130.111 220.316 130.312 220.277C130.462 220.232 130.537 220.15 130.537 220.033C130.537 220.02 130.537 220.001 130.537 219.975C130.537 219.942 130.531 219.913 130.518 219.887L129.453 216.391C129.44 216.339 129.404 216.28 129.346 216.215C129.294 216.15 129.229 216.117 129.15 216.117H125.186C125.094 216.117 125.033 216.133 125 216.166C124.967 216.192 124.938 216.221 124.912 216.254L124.404 217.621C124.32 217.842 124.261 218.044 124.229 218.227C124.196 218.402 124.18 218.572 124.18 218.734C124.18 218.93 124.199 219.145 124.238 219.379C124.271 219.613 124.349 219.796 124.473 219.926C124.596 220.056 124.74 220.154 124.902 220.219C125.072 220.284 125.251 220.329 125.439 220.355C125.628 220.375 125.801 220.395 125.957 220.414C126.113 220.434 126.24 220.463 126.338 220.502C126.442 220.535 126.494 220.6 126.494 220.697C126.494 220.756 126.475 220.818 126.436 220.883C126.403 220.948 126.322 220.987 126.191 221H125.771C125.387 220.987 125.013 220.974 124.648 220.961C124.29 220.941 123.916 220.932 123.525 220.932C123.096 220.932 122.705 220.945 122.354 220.971C122.008 220.99 121.66 221 121.309 221H121.182C120.928 221 120.801 220.915 120.801 220.746ZM140.668 220.189V213.344C140.668 213.142 140.674 212.865 140.688 212.514C140.701 212.156 140.717 211.771 140.736 211.361C140.756 210.951 140.772 210.535 140.785 210.111C140.798 209.688 140.805 209.307 140.805 208.969C140.805 208.513 140.785 208.181 140.746 207.973C140.733 207.849 140.681 207.751 140.59 207.68C140.505 207.602 140.398 207.543 140.268 207.504C140.144 207.458 140.001 207.429 139.838 207.416C139.682 207.396 139.529 207.38 139.379 207.367C139.236 207.348 139.099 207.331 138.969 207.318C138.845 207.299 138.747 207.27 138.676 207.23C138.591 207.185 138.549 207.13 138.549 207.064C138.549 207.012 138.552 206.977 138.559 206.957C138.572 206.938 138.591 206.921 138.617 206.908C138.695 206.882 138.77 206.866 138.842 206.859C138.92 206.846 138.988 206.84 139.047 206.84H139.418C139.711 206.84 139.962 206.846 140.17 206.859C140.385 206.866 140.583 206.879 140.766 206.898C140.948 206.911 141.127 206.924 141.303 206.938C141.479 206.944 141.677 206.947 141.898 206.947C142.139 206.947 142.361 206.934 142.562 206.908C142.771 206.882 142.966 206.853 143.148 206.82C143.337 206.788 143.516 206.758 143.686 206.732C143.861 206.706 144.037 206.693 144.213 206.693H144.564C144.636 206.693 144.714 206.7 144.799 206.713C144.883 206.726 144.926 206.775 144.926 206.859C144.926 206.97 144.851 207.048 144.701 207.094C144.59 207.126 144.46 207.156 144.311 207.182C144.167 207.201 144.005 207.247 143.822 207.318C143.653 207.357 143.513 207.4 143.402 207.445C143.298 207.491 143.22 207.527 143.168 207.553C143.096 207.598 143.031 207.657 142.973 207.729C142.921 207.8 142.895 207.904 142.895 208.041V219.818C142.895 219.962 142.934 220.072 143.012 220.15C143.09 220.229 143.188 220.287 143.305 220.326C143.428 220.365 143.559 220.388 143.695 220.395C143.839 220.401 143.972 220.404 144.096 220.404C144.239 220.404 144.441 220.398 144.701 220.385C144.962 220.372 145.235 220.352 145.521 220.326C145.808 220.3 146.085 220.268 146.352 220.229C146.625 220.183 146.846 220.131 147.016 220.072C147.243 219.994 147.452 219.916 147.641 219.838C147.836 219.753 147.999 219.649 148.129 219.525C148.148 219.512 148.181 219.486 148.227 219.447C148.272 219.402 148.321 219.35 148.373 219.291C148.432 219.226 148.487 219.158 148.539 219.086C148.591 219.014 148.637 218.943 148.676 218.871C148.715 218.819 148.747 218.773 148.773 218.734C148.806 218.695 148.835 218.663 148.861 218.637C148.887 218.604 148.92 218.549 148.959 218.471C148.998 218.393 149.04 218.305 149.086 218.207C149.138 218.109 149.19 218.012 149.242 217.914C149.294 217.81 149.346 217.712 149.398 217.621C149.444 217.562 149.486 217.514 149.525 217.475C149.571 217.436 149.63 217.416 149.701 217.416C149.773 217.416 149.812 217.458 149.818 217.543C149.831 217.621 149.838 217.699 149.838 217.777C149.838 217.934 149.818 218.093 149.779 218.256C149.747 218.412 149.708 218.568 149.662 218.725C149.617 218.881 149.568 219.037 149.516 219.193C149.464 219.35 149.424 219.506 149.398 219.662C149.366 219.812 149.343 219.968 149.33 220.131C149.324 220.287 149.307 220.434 149.281 220.57C149.262 220.701 149.219 220.808 149.154 220.893C149.096 220.977 148.998 221.02 148.861 221.02H142.182C141.778 221.02 141.439 221.026 141.166 221.039C140.899 221.059 140.655 221.078 140.434 221.098C140.212 221.124 139.991 221.143 139.77 221.156C139.555 221.176 139.301 221.186 139.008 221.186C138.897 221.186 138.803 221.176 138.725 221.156C138.653 221.137 138.594 221.085 138.549 221C138.542 220.974 138.536 220.954 138.529 220.941C138.523 220.928 138.52 220.886 138.52 220.814C138.52 220.73 138.555 220.671 138.627 220.639C138.705 220.6 138.764 220.574 138.803 220.561C138.874 220.548 138.982 220.541 139.125 220.541C139.268 220.535 139.398 220.525 139.516 220.512C139.574 220.505 139.649 220.495 139.74 220.482C139.831 220.469 139.929 220.45 140.033 220.424C140.144 220.398 140.255 220.365 140.365 220.326C140.476 220.287 140.577 220.242 140.668 220.189Z" fill="black"/>
</svg>
